<!--?xml version="1.0" encoding="utf-8"?-->
<!-- Generator: Adobe Illustrator 18.1.1, SVG Export Plug-In . SVG Version: 6.00 Build 0)  -->

<svg version="1.1" id="_x32_" xmlns="http://www.w3.org/2000/svg" xmlns:xlink="http://www.w3.org/1999/xlink" x="0px" y="0px" viewBox="0 0 512 512" style="width: 16px; height: 16px; opacity: 1;" xml:space="preserve">
<style type="text/css">
	.st0{fill:#4B4B4B;}
</style>
<g>
	<path class="st0" d="M469.476,257.712c-7.315-5.863-13.548-13.058-18.835-21.076c-7.005-10.585-12.482-22.655-16.964-35.72
		c-8.894-26.098-13.77-56.248-16.38-86.603c-1.717-20.234-2.387-40.545-2.387-59.681c0-17.083,0.55-33.189,1.34-47.508h-37.756
		L256.009,222.807L133.523,7.125H95.75c0.807,14.319,1.339,30.425,1.339,47.508c0,25.119-1.15,52.247-4.318,78.593
		c-3.185,26.346-8.353,51.894-16.766,74.138c-5.64,14.826-12.732,28.235-22.157,39.317c-3.426,4.026-7.22,7.683-11.323,10.972
		L41.752,512h149.7l64.557-65.862l10.996,11.22L320.548,512h149.7L469.476,257.712z M256.009,409.12
		c-10.354,0-18.75-8.387-18.75-18.74c0-10.353,8.396-18.749,18.75-18.749c10.344,0,18.731,8.396,18.731,18.749
		C274.74,400.733,266.354,409.12,256.009,409.12z M256.009,318.269c-10.354,0-18.75-8.38-18.75-18.732
		c0-10.353,8.396-18.749,18.75-18.749c10.344,0,18.731,8.396,18.731,18.749C274.74,309.89,266.354,318.269,256.009,318.269z" style="fill: rgb(75, 75, 75);"></path>
	<polygon class="st0" points="283.686,0 228.323,0 223.412,43.851 288.596,43.851 	" style="fill: rgb(75, 75, 75);"></polygon>
	<polygon class="st0" points="288.596,130.968 285.042,56.891 226.966,56.891 223.412,130.968 256.009,186.082 	" style="fill: rgb(75, 75, 75);"></polygon>
</g>
</svg>
